<svg xmlns="http://www.w3.org/2000/svg" role="img" aria-label="Avatar" width="300" height="300" viewBox="0 0 300 300"><defs><clipPath id="cw0kcpa"><rect x="0" y="0" width="300" height="300" rx="300" ry="300"></rect></clipPath></defs><rect x="0" y="0" width="300" height="300" rx="300" ry="300" fill="#ff9e91"></rect><g clip-path="url(#cw0kcpa)"><g data-testid="avatar-item-head-1" transform="translate(-36, 0) scale(1.1538461538461537)"><svg xmlns="http://www.w3.org/2000/svg" width="320" height="320" fill="none" viewBox="0 0 320 320" color="#ffffff" uid="zysy42l"><path fill="#ffffff" d="M213.73 127.56c.06.41.09.82.09 1.24 0 5.66-5.04 10.25-11.25 10.25-.75 0-1.49-.09-2.21-.22v-10.32c.12-.05.24-.11.34-.2.07-.05.66-.53 1.63-.93-.06 1.79.66 4.03 3.41 5.74q.315.18.66.18c.42 0 .83-.21 1.06-.59.37-.59.18-1.36-.4-1.72-2.36-1.46-2.35-3.23-2.15-4.15 1.57-.03 3.48.46 5.56 2.13.23.19.51.28.78.28.37 0 .73-.16.98-.47s.33-.7.25-1.05z"></path><path fill="#ffffff" d="m213.73 127.56-1.25.17a1.28 1.28 0 0 0-.44-.71c-4.68-3.76-9.14-2.89-11.68-1.48v-6.76c.73-.14 1.46-.23 2.21-.23 5.75 0 10.5 3.94 11.16 9.01"></path><path fill="#000" d="M202.57 116.05c7.58 0 13.75 5.72 13.75 12.75s-6.17 12.75-13.75 12.75c-.74 0-1.48-.06-2.21-.17v.92c0 10.79-4.5 20.54-11.71 27.5h.16v24.68c0 13.52-11 24.52-24.52 24.52h-5.46c-13.52 0-24.52-11-24.52-24.52v-25.92a38 38 0 0 1-1.96-2.22 38.34 38.34 0 0 1-8.49-24.04v-.93c-.76.12-1.52.18-2.29.18-7.58 0-13.75-5.72-13.75-12.75s6.17-12.75 13.75-12.75c.77 0 1.53.07 2.29.19v-9.94c0-21.09 17.16-38.25 38.25-38.25s38.25 17.16 38.25 38.25v9.92c.73-.1 1.47-.17 2.21-.17m11.25 12.75c0-.42-.03-.83-.09-1.24-.66-5.07-5.41-9.01-11.16-9.01-.75 0-1.48.09-2.21.23v6.76c2.54-1.41 7-2.28 11.68 1.48.23.19.38.44.44.71.08.35 0 .74-.25 1.05s-.61.47-.98.47c-.27 0-.55-.09-.78-.28-2.08-1.67-3.99-2.16-5.56-2.13-.2.92-.21 2.69 2.15 4.15.58.36.77 1.13.4 1.72-.23.38-.64.59-1.06.59q-.345 0-.66-.18c-2.75-1.71-3.47-3.95-3.41-5.74-.97.4-1.56.88-1.63.93-.1.09-.22.15-.34.2v10.32c.72.13 1.46.22 2.21.22 6.21 0 11.25-4.59 11.25-10.25m-15.96 13.5v-36c0-19.71-16.04-35.75-35.75-35.75s-35.75 16.04-35.75 35.75v36c0 8.16 2.81 16.13 7.93 22.46 6.83 8.45 16.97 13.29 27.82 13.29 19.71 0 35.75-16.03 35.75-35.75m-11.55 52.18V171.9c-6.6 5.4-15.03 8.65-24.2 8.65s-18.37-3.42-25.3-9.55v23.48c0 12.14 9.88 22.02 22.02 22.02h5.46c12.14 0 22.02-9.88 22.02-22.02m-62.45-55.66v-10.81c-.44-.25-1.15-.6-2.06-.86.14 1.83-.52 4.19-3.4 5.97a1.264 1.264 0 0 1-1.72-.41 1.25 1.25 0 0 1 .41-1.72c2.38-1.47 2.35-3.27 2.13-4.18-1.65.04-3.57.57-5.55 2.16a1.23 1.23 0 0 1-1.75-.19c-.25-.31-.33-.7-.25-1.05.06-.27.21-.52.44-.71 4.36-3.51 8.88-3 11.75-1.8v-6.43c-.75-.14-1.52-.24-2.29-.24-5.74 0-10.49 3.94-11.16 9.01-.06.41-.09.82-.09 1.24 0 5.66 5.05 10.25 11.25 10.25.78 0 1.54-.09 2.29-.23"></path><path fill="#ffffff" d="M197.86 106.3v36c0 19.72-16.04 35.75-35.75 35.75-10.85 0-20.99-4.84-27.82-13.29-5.12-6.33-7.93-14.3-7.93-22.46v-36c0-19.71 16.03-35.75 35.75-35.75s35.75 16.04 35.75 35.75"></path><path fill="#ffffff" d="M186.31 171.9v22.58c0 12.14-9.88 22.02-22.02 22.02h-5.46c-12.14 0-22.02-9.88-22.02-22.02V171c6.93 6.13 15.86 9.55 25.3 9.55s17.6-3.25 24.2-8.65M123.86 128.01v10.81c-.75.14-1.51.23-2.29.23-6.2 0-11.25-4.59-11.25-10.25 0-.42.03-.83.09-1.24l1.26.17c-.08.35 0 .74.25 1.05a1.23 1.23 0 0 0 1.75.19c1.98-1.59 3.9-2.12 5.55-2.16.22.91.25 2.71-2.13 4.18a1.25 1.25 0 0 0-.41 1.72 1.264 1.264 0 0 0 1.72.41c2.88-1.78 3.54-4.14 3.4-5.97.91.26 1.62.61 2.06.86"></path><path fill="#ffffff" d="M123.86 118.79v6.43c-2.87-1.2-7.39-1.71-11.75 1.8-.23.19-.38.44-.44.71l-1.26-.17c.67-5.07 5.42-9.01 11.16-9.01.77 0 1.54.1 2.29.24"></path><path fill="#000" d="M179.86 175.56c-.3.18-.62.35-.98.48-6.83 2.53-16.24 4.2-23.49 2.82-6.44-1.22-15.15-4.86-19.78-9.82l1.05 22.99s28.09.62 46.81-17.96c-1.14.61-2.36 1.1-3.62 1.49z" opacity="0.6"></path><g clip-path="url(#zysy42l-zmfgdra)"><path fill="#000" d="M161.78 143.58c-.69 0-1.25-.56-1.25-1.25v-27.08a1.25 1.25 0 0 1 2.5 0v27.08c0 .69-.56 1.25-1.25 1.25"></path><path fill="#000" d="m158 142.24 2.53-26.99 1.25 28.32h-2.56c-.72 0-1.29-.62-1.22-1.34z" opacity="0.1"></path></g><defs><clipPath id="zysy42l-zmfgdra"><path fill="#fff" d="M158 114h5.03v29.58H158z"></path></clipPath></defs></svg></g><g data-testid="avatar-item-hair-5" transform="translate(-36, 0) scale(1.1538461538461537)"><svg xmlns="http://www.w3.org/2000/svg" width="320" height="320" fill="none" viewBox="0 0 320 320" color="#fda25f" uid="zysy42l"><g clip-path="url(#zysy42l-29gtkoq)"><path fill="#000" d="M120.84 118.14s-2.34-7.47-1.35-11.53c0 0-3.56-8.6-1.6-13.77 0 0-3.41-14.67 9.09-22.38.97-.6 1.47-1.73 1.24-2.85s-.45-2.59-.4-3.89c.05-1.42 1.19-2.53 2.61-2.68 1.56-.16 4.25-.77 8.34-2.72 7.25-3.44 10.82-8.85 23.11-4.92 0 0 8.97-6.88 15.98-3.44s.98 4.92 9.71 10.08 9.22 7.01 11.43 11.31 6.64 3.07 8.11 7.62c0 0-3.77 1.23-2.93 3.2 0 0 1 7.01 1.59 14.14s-4.67 22.03-4.67 22.03l-3.8.26s-1.87-4.43-5.68-7.01c0 0-2.2-14.44-2.2-20.34 0 0-10.75-10.82-14.23-14.51 0 0-12.08 5.78-25.36.25 0 0-10.45 7.13-14.38 8.36s-4.18 9.59-6.15 11.31.2 10.92-.88 14.8-4.15 10.96-4.15 10.96l-3.45-4.27z"></path></g><defs><clipPath id="zysy42l-29gtkoq"><path fill="#fff" d="M56 49h208.23v222.53H56z"></path></clipPath></defs></svg></g><g data-testid="avatar-item-body-10" transform="translate(-36, 0) scale(1.1538461538461537)"><svg xmlns="http://www.w3.org/2000/svg" width="320" height="320" fill="none" viewBox="0 0 320 320" color="#31333A" uid="zysy42l"><g clip-path="url(#zysy42l-kcfb1bm)"><path fill="#31333A" d="M263 267.53H57.55c5.36-17.34 24.45-48.89 46.32-54.93 10.84-2.98 18.56-6.93 23.78-10.36.57 4.71 4.77 23.27 35.84 23.27 12.75 0 22.19-3.18 28.04-9.47 4.52-4.86 5.6-9.98 5.82-12.83 5.2 3.21 12.46 6.71 22.19 9.39 22.51 6.21 41.09 38.48 43.46 54.93"></path><path fill="#31333A" d="M183.08 210.41c3.38-3.96 5.18-9.19 4.9-14.39 1.33 1.33 3.65 3.39 7.09 5.72-.15 2.48-1.01 7.93-5.4 12.63-5.37 5.73-14.17 8.64-26.18 8.64-32.83 0-33.42-21.53-33.43-22.42 2.45-1.79 4.16-3.35 5.22-4.4.71 4.92 1.73 9.93 5.21 13.7 1.88 2.03 4.15 3.92 6.53 5.34 2.46 1.48 5.24 2.22 8.07 2.61 9.6 1.32 21.25.44 27.99-7.43"></path><path fill="#000" d="M103.21 210.19c22.62-6.24 31.35-16.9 31.44-17.01l.37-.46h.12c.05.6.22 1.23.53 1.87.2-.01.39.09.43.36.4 2.83.81 5.68 1.73 8.4.95 2.82 2.54 5.17 4.73 7.18 1.99 1.83 4.17 3.6 6.65 4.72 2.52 1.14 5.3 1.59 8.03 1.83 4.82.43 9.78.35 14.48-.93 4.61-1.25 8.83-3.78 11.63-7.71 2.72-3.8 4.03-8.51 3.61-13.16-.05-.47.46-.59.77-.38.4-.74.55-1.54.5-2.34l.29.37c.12.15 9.19 11.06 31.68 17.26 23.44 6.47 43.73 39.93 45.45 58.47l.13 1.37H54.25l.43-1.58c4.49-16.4 23.93-51.47 48.53-58.26m24.44-7.95c-5.22 3.43-12.94 7.38-23.78 10.36-21.87 6.04-40.96 37.59-46.32 54.93H263c-2.37-16.45-20.95-48.72-43.46-54.93-9.73-2.68-16.99-6.18-22.19-9.39-.22 2.85-1.3 7.97-5.82 12.83-5.85 6.29-15.29 9.47-28.04 9.47-31.07 0-35.27-18.56-35.84-23.27m7.63-6.05c-1.06 1.05-2.77 2.61-5.22 4.4.01.89.6 22.42 33.43 22.42 12.01 0 20.81-2.91 26.18-8.64 4.39-4.7 5.25-10.15 5.4-12.63-3.44-2.33-5.76-4.39-7.09-5.72.28 5.2-1.52 10.43-4.9 14.39-6.74 7.87-18.39 8.75-27.99 7.43-2.83-.39-5.61-1.13-8.07-2.61-2.38-1.42-4.65-3.31-6.53-5.34-3.48-3.77-4.5-8.78-5.21-13.7"></path></g><defs><clipPath id="zysy42l-kcfb1bm"><path fill="#fff" d="M54 50h212.04v220.27H54z"></path></clipPath></defs></svg></g><g data-testid="avatar-item-mouth-15" transform="translate(-36, 0) scale(1.1538461538461537)"><svg xmlns="http://www.w3.org/2000/svg" width="320" height="320" fill="none" viewBox="0 0 320 320" color="#000000" uid="zysy42l"><path fill="#000" d="M162.97 153.34c-4.29 0-7.63-1.66-7.84-1.76-.62-.31-.86-1.06-.55-1.68s1.06-.86 1.68-.55c.08.04 6.72 3.29 12.62.02.6-.33 1.36-.12 1.7.49.33.6.12 1.36-.49 1.7-2.42 1.34-4.89 1.79-7.12 1.79z"></path></svg></g><g data-testid="avatar-item-eyes-20" transform="translate(-36, 0) scale(1.1538461538461537)"><svg xmlns="http://www.w3.org/2000/svg" width="320" height="320" fill="none" viewBox="0 0 320 320" color="#000000" uid="zysy42l"><path fill="#fff" d="M155 119.5h-22c-1 3.5 1 12 11.5 12 8.4 0 10.5-8 10.5-12M192.229 119.5h-22c-1 3.5 1 12 11.5 12 8.4 0 10.5-8 10.5-12"></path><path fill="#000" d="M143.79 132.88c-7.18 0-13.02-5.84-13.02-13.03 0-.69.56-1.25 1.25-1.25h23.55c.69 0 1.25.56 1.25 1.25 0 7.18-5.84 13.03-13.02 13.03zm-10.45-11.78c.62 5.22 5.07 9.28 10.45 9.28s9.83-4.06 10.45-9.28z"></path><path fill="#000" d="M150.02 120.65h-12.79c0 3.62 2.94 6.56 6.56 6.56s6.56-2.94 6.56-6.56M157.18 116.69h-25.17a1.25 1.25 0 0 1 0-2.5h25.17a1.25 1.25 0 0 1 0 2.5M180.49 132.88c-7.18 0-13.03-5.84-13.03-13.03 0-.69.56-1.25 1.25-1.25h23.55c.69 0 1.25.56 1.25 1.25 0 7.18-5.84 13.03-13.02 13.03m-10.45-11.78c.62 5.22 5.07 9.28 10.45 9.28s9.83-4.06 10.45-9.28z"></path><path fill="#000" d="M174.26 120.65h12.79c0 3.62-2.94 6.56-6.56 6.56s-6.56-2.94-6.56-6.56M192.26 116.69h-25.17a1.25 1.25 0 0 1 0-2.5h25.17a1.25 1.25 0 0 1 0 2.5"></path></svg></g></g></svg>